<svg width="50" height="28" viewBox="0 0 50 28" fill="none" xmlns="http://www.w3.org/2000/svg">
<g clip-path="url(#clip0_178_1407)">
<path d="M30.6396 5.46019L49.389 13.1868C49.5827 13.2666 49.7364 13.3613 49.8412 13.4655C49.946 13.5697 50 13.6814 50 13.7942C50 13.9071 49.946 14.0188 49.8412 14.123C49.7364 14.2272 49.5827 14.3219 49.389 14.4016L30.6396 22.1283C30.2487 22.2894 29.7185 22.3799 29.1657 22.3799C28.6129 22.3799 28.0827 22.2894 27.6918 22.1283C27.3009 21.9672 27.0813 21.7487 27.0813 21.5209C27.0813 21.2931 27.3009 21.0746 27.6918 20.9135L42.8866 14.6528L2.08327 14.6528C1.53075 14.6528 1.00086 14.5623 0.610175 14.4013C0.219487 14.2403 0 14.0219 0 13.7942C0 13.5665 0.219487 13.3482 0.610175 13.1872C1.00086 13.0262 1.53075 12.9357 2.08327 12.9357L42.8866 12.9357L27.6918 6.67499C27.3009 6.5139 27.0813 6.29541 27.0813 6.06759C27.0813 5.83977 27.3009 5.62128 27.6918 5.46019C28.0827 5.2991 28.6129 5.2086 29.1657 5.2086C29.7185 5.2086 30.2487 5.2991 30.6396 5.46019Z" fill="white"/>
</g>
<defs>
<clipPath id="clip0_178_1407">
<rect width="27.4725" height="50" fill="white" transform="matrix(0 -1 1 0 0 27.7363)"/>
</clipPath>
</defs>
</svg>
