<svg width="51" height="50" viewBox="0 0 51 50" fill="none" xmlns="http://www.w3.org/2000/svg">
<path d="M25.5 45.3125C29.5174 45.3125 33.4446 44.1212 36.785 41.8892C40.1254 39.6573 42.7289 36.4849 44.2663 32.7733C45.8037 29.0616 46.206 24.9775 45.4222 21.0372C44.6384 17.097 42.7039 13.4776 39.8631 10.6369C37.0223 7.79614 33.403 5.86156 29.4628 5.0778C25.5225 4.29404 21.4384 4.69629 17.7267 6.2337C14.0151 7.7711 10.8427 10.3746 8.61076 13.715C6.3788 17.0554 5.18749 20.9826 5.18749 25C5.19318 30.3855 7.33506 35.5487 11.1432 39.3568C14.9513 43.1649 20.1145 45.3068 25.5 45.3125ZM17.6875 23.4375H29.541L25.957 19.8555C25.8118 19.7103 25.6967 19.538 25.6181 19.3483C25.5396 19.1586 25.4991 18.9553 25.4991 18.75C25.4991 18.5447 25.5396 18.3414 25.6181 18.1517C25.6967 17.962 25.8118 17.7897 25.957 17.6445C26.1022 17.4994 26.2745 17.3842 26.4642 17.3056C26.6539 17.2271 26.8572 17.1866 27.0625 17.1866C27.2678 17.1866 27.4711 17.2271 27.6608 17.3056C27.8504 17.3842 28.0228 17.4994 28.168 17.6445L34.418 23.8945C34.5632 24.0396 34.6785 24.212 34.7571 24.4017C34.8357 24.5913 34.8762 24.7947 34.8762 25C34.8762 25.2053 34.8357 25.4087 34.7571 25.5983C34.6785 25.788 34.5632 25.9604 34.418 26.1055L28.168 32.3555C27.8748 32.6487 27.4771 32.8134 27.0625 32.8134C26.6479 32.8134 26.2502 32.6487 25.957 32.3555C25.6638 32.0623 25.4991 31.6646 25.4991 31.25C25.4991 30.8354 25.6638 30.4377 25.957 30.1445L29.541 26.5625H17.6875C17.2731 26.5625 16.8757 26.3979 16.5826 26.1049C16.2896 25.8118 16.125 25.4144 16.125 25C16.125 24.5856 16.2896 24.1882 16.5826 23.8951C16.8757 23.6021 17.2731 23.4375 17.6875 23.4375Z" fill="#B1056D"/>
</svg>
