<svg width="51" height="50" viewBox="0 0 51 50" fill="none" xmlns="http://www.w3.org/2000/svg">
<path d="M25.5 4.6875C21.4826 4.6875 17.5554 5.87881 14.215 8.11077C10.8746 10.3427 8.27111 13.5151 6.73371 17.2267C5.1963 20.9384 4.79405 25.0225 5.57781 28.9628C6.36157 32.903 8.29615 36.5224 11.1369 39.3631C13.9777 42.2039 17.597 44.1384 21.5372 44.9222C25.4775 45.706 29.5616 45.3037 33.2733 43.7663C36.9849 42.2289 40.1573 39.6254 42.3892 36.285C44.6212 32.9446 45.8125 29.0174 45.8125 25C45.8068 19.6145 43.6649 14.4513 39.8568 10.6432C36.0487 6.83507 30.8855 4.69319 25.5 4.6875ZM33.3125 26.5625H21.459L25.043 30.1445C25.1882 30.2897 25.3033 30.462 25.3819 30.6517C25.4604 30.8414 25.5009 31.0447 25.5009 31.25C25.5009 31.4553 25.4604 31.6586 25.3819 31.8483C25.3033 32.038 25.1882 32.2103 25.043 32.3555C24.8978 32.5006 24.7255 32.6158 24.5358 32.6944C24.3461 32.7729 24.1428 32.8134 23.9375 32.8134C23.7322 32.8134 23.5289 32.7729 23.3392 32.6944C23.1496 32.6158 22.9772 32.5006 22.832 32.3555L16.582 26.1055C16.4368 25.9604 16.3215 25.788 16.2429 25.5983C16.1643 25.4087 16.1238 25.2053 16.1238 25C16.1238 24.7947 16.1643 24.5913 16.2429 24.4017C16.3215 24.212 16.4368 24.0396 16.582 23.8945L22.832 17.6445C23.1252 17.3513 23.5229 17.1866 23.9375 17.1866C24.3521 17.1866 24.7498 17.3513 25.043 17.6445C25.3362 17.9377 25.5009 18.3354 25.5009 18.75C25.5009 19.1646 25.3362 19.5623 25.043 19.8555L21.459 23.4375H33.3125C33.7269 23.4375 34.1243 23.6021 34.4174 23.8951C34.7104 24.1882 34.875 24.5856 34.875 25C34.875 25.4144 34.7104 25.8118 34.4174 26.1049C34.1243 26.3979 33.7269 26.5625 33.3125 26.5625Z" fill="#B1056D"/>
</svg>
